<svg width="88" height="95" viewBox="0 0 88 95" fill="none" xmlns="http://www.w3.org/2000/svg">
<g filter="url(#filter0_d_2889_15348)">
<rect x="10" y="10" width="77" height="75" rx="37.5" fill="#F47820"/>
<path d="M32.7816 57.2732C30 55.0483 30 53.3649 30 46.2C30 39.0351 30 35.4517 32.7816 33.2268C35.567 31 40.0434 31 49 31C57.9566 31 62.4349 31 65.2165 33.2268C68 35.4517 68 39.0351 68 46.2C68 53.3649 68 55.0483 65.2165 57.2732C62.4368 59.5 57.9566 59.5 49 59.5C44.231 59.5 41.78 62.8022 37.6 65.2V59.0972C35.5214 58.7875 33.9919 58.2422 32.7816 57.2732Z" fill="white" stroke="white" stroke-width="2.85" stroke-linecap="round" stroke-linejoin="round"/>
</g>
<defs>
<filter id="filter0_d_2889_15348" x="0" y="0" width="97" height="95" filterUnits="userSpaceOnUse" color-interpolation-filters="sRGB">
<feFlood flood-opacity="0" result="BackgroundImageFix"/>
<feColorMatrix in="SourceAlpha" type="matrix" values="0 0 0 0 0 0 0 0 0 0 0 0 0 0 0 0 0 0 127 0" result="hardAlpha"/>
<feOffset/>
<feGaussianBlur stdDeviation="5"/>
<feComposite in2="hardAlpha" operator="out"/>
<feColorMatrix type="matrix" values="0 0 0 0 0 0 0 0 0 0 0 0 0 0 0 0 0 0 0.2 0"/>
<feBlend mode="normal" in2="BackgroundImageFix" result="effect1_dropShadow_2889_15348"/>
<feBlend mode="normal" in="SourceGraphic" in2="effect1_dropShadow_2889_15348" result="shape"/>
</filter>
</defs>
</svg>
