<svg width="76" height="76" viewBox="0 0 76 76" fill="none" xmlns="http://www.w3.org/2000/svg">
<rect width="76" height="76" rx="38" fill="#F47820"/>
<path d="M57.5302 31.631L26.6242 28.211L24.7402 21.0725C24.6743 20.8333 24.5322 20.6222 24.3353 20.4711C24.1385 20.3201 23.8978 20.2374 23.6497 20.2355H19.0102C18.8429 20.0094 18.6253 19.8254 18.3746 19.6978C18.1239 19.5703 17.847 19.5027 17.5657 19.5005C17.0718 19.5005 16.5982 19.6967 16.2489 20.0459C15.8997 20.3952 15.7035 20.8689 15.7035 21.3628C15.7035 21.8567 15.8997 22.3303 16.2489 22.6796C16.5982 23.0288 17.0718 23.225 17.5657 23.225C18.1657 23.225 18.6727 22.925 19.0132 22.487H22.7812L30.6262 52.187C29.7702 53.0977 29.2929 54.3001 29.2912 55.55C29.2907 56.1987 29.418 56.8412 29.6659 57.4406C29.9138 58.0401 30.2775 58.5848 30.7361 59.0435C31.1948 59.5023 31.7394 59.8662 32.3387 60.1143C32.9381 60.3624 33.5805 60.4899 34.2292 60.4895C35.54 60.4899 36.7972 59.9698 37.7246 59.0436C38.6519 58.1173 39.1736 56.8607 39.1747 55.55C39.172 55.1743 39.1252 54.8003 39.0352 54.4355H47.3347C47.2466 54.8006 47.2003 55.1745 47.1967 55.55C47.1967 58.28 49.4107 60.4895 52.1407 60.4895C54.8707 60.4895 57.0802 58.28 57.0802 55.55C57.0806 54.239 56.5603 52.9816 55.6338 52.0542C54.7072 51.1267 53.4502 50.6053 52.1392 50.6045C50.7142 50.6045 49.4392 51.2195 48.5362 52.184H37.8322C37.3726 51.687 36.8154 51.2902 36.1955 51.0185C35.5755 50.7467 34.9062 50.6058 34.2292 50.6045C33.6592 50.6045 33.1222 50.7215 32.6137 50.8985L32.3407 49.8695H54.2152C55.0559 49.8523 55.8664 49.5531 56.5165 49.0199C57.1667 48.4867 57.6188 47.7505 57.8002 46.9295L60.1627 35.2325C60.2043 35.0281 60.2244 34.82 60.2227 34.6115C60.2239 33.869 59.9489 33.1526 59.4513 32.6015C58.9537 32.0504 58.269 31.7054 57.5302 31.631ZM52.1422 55.991C52.025 55.9898 51.9128 55.9429 51.8296 55.8603C51.7463 55.7776 51.6987 55.6658 51.6967 55.5485C51.7012 55.2995 51.8992 55.1015 52.1437 55.1015C52.3882 55.1015 52.5862 55.2995 52.5892 55.547C52.5869 55.664 52.5391 55.7755 52.4559 55.8578C52.3727 55.9402 52.2608 55.9869 52.1437 55.988L52.1422 55.991ZM54.8122 44.7485L56.2342 43.3235L55.7572 45.6935L54.8122 44.7485ZM33.1327 31.193L34.6852 32.75L32.7502 34.685L30.8107 32.75L32.4412 31.118L33.1327 31.193ZM39.8797 31.94L40.6867 32.75L38.7517 34.685L36.8122 32.75L37.8442 31.715L39.8797 31.94ZM28.4452 35.114L29.7502 33.812L31.6852 35.75L29.7502 37.685L28.9027 36.8405L28.4467 35.1125L28.4452 35.114ZM28.0027 33.434L27.5107 31.574L28.6882 32.7515L28.0027 33.434ZM46.6852 38.75L44.7502 40.685L42.8107 38.75L44.7487 36.8105L46.6852 38.75ZM45.8107 35.75L47.7487 33.812L49.6837 35.75L47.7487 37.688L45.8107 35.75ZM41.7502 37.685L39.8107 35.75L41.7487 33.8105L43.6837 35.7485L41.7502 37.685ZM40.6852 38.75L38.7502 40.685L36.8122 38.75L38.7502 36.8105L40.6852 38.75ZM35.7502 37.685L33.8107 35.75L35.7487 33.8105L37.6837 35.7485L35.7502 37.685ZM34.6852 38.75L32.7502 40.685L30.8107 38.75L32.7487 36.8105L34.6852 38.75ZM29.7502 39.8105L31.6852 41.7485L30.5092 42.923L29.6992 39.857L29.7487 39.8075L29.7502 39.8105ZM30.9532 44.606L32.7487 42.8105L34.6837 44.7485L32.7487 46.6835L31.0537 44.9885L30.9532 44.606ZM33.8122 41.7485L35.7472 39.809L37.6867 41.747L35.7517 43.682L33.8137 41.747L33.8122 41.7485ZM38.7502 42.809L40.6882 44.747L38.7502 46.682L36.8122 44.747L38.7502 42.809ZM39.8122 41.747L41.7502 39.8075L43.6852 41.7455L41.7502 43.6805L39.8122 41.747ZM44.7472 42.8075L46.6867 44.7455L44.7517 46.6805L42.8137 44.7425L44.7472 42.8075ZM45.8122 41.7455L47.7472 39.806L49.6867 41.744L47.7517 43.679L45.8122 41.7455ZM48.8122 38.7455L50.7472 36.806L52.6867 38.744L50.7517 40.679L48.8122 38.7455ZM51.8122 35.7455L53.7472 33.806L55.6852 35.75L53.7502 37.688L51.8107 35.7485L51.8122 35.7455ZM50.7472 34.6835L49.0147 32.9495L52.1377 33.2945L50.7472 34.6835ZM46.6882 32.75L44.7532 34.688L42.8137 32.75L43.2487 32.315L46.6282 32.69L46.6882 32.75ZM35.7532 31.685L35.5252 31.46L35.9347 31.505L35.7547 31.685H35.7532ZM29.7532 31.688L28.7782 30.713L30.5332 30.908L29.7532 31.688ZM35.7532 45.8105L37.5607 47.618H33.9457L35.7532 45.8105ZM41.7532 45.8105L43.5607 47.6195H39.9427L41.7532 45.8105ZM47.7532 45.8105L49.5637 47.621H45.9427L47.7532 45.8105ZM48.8137 44.7485L50.7517 42.809L52.6867 44.747L50.7517 46.682L48.8137 44.7485ZM51.8137 41.7485L53.7517 39.8105L55.6867 41.7455L53.7517 43.685L51.8122 41.75L51.8137 41.7485ZM56.7517 40.6835L54.8137 38.7485L56.7487 36.8105L57.4162 37.4765L56.7712 40.6625L56.7502 40.685L56.7517 40.6835ZM57.5017 33.9335L56.7517 34.6835L55.7617 33.698L57.2872 33.866C57.3682 33.878 57.4372 33.905 57.5032 33.932L57.5017 33.9335ZM34.2322 55.9895C34.1188 55.9829 34.0121 55.9332 33.9341 55.8505C33.856 55.7678 33.8126 55.6584 33.8126 55.5448C33.8126 55.4311 33.856 55.3217 33.9341 55.239C34.0121 55.1563 34.1188 55.1066 34.2322 55.1C34.3453 55.1066 34.4516 55.1561 34.5294 55.2386C34.6071 55.321 34.6504 55.43 34.6504 55.5433C34.6504 55.6565 34.6071 55.7655 34.5294 55.8479C34.4516 55.9304 34.3453 55.9799 34.2322 55.9865V55.9895ZM54.2167 47.6195H51.9412L53.7517 45.809L55.1467 47.204C54.8662 47.459 54.5122 47.639 54.2167 47.6195Z" fill="white"/>
</svg>
