<svg width="77" height="76" viewBox="0 0 77 76" fill="none" xmlns="http://www.w3.org/2000/svg">
<rect x="0.5" width="76" height="76" rx="38" fill="#F47820"/>
<path d="M45.8334 44.8633V26.2396C45.8334 25.2008 45.4208 24.2046 44.6862 23.4701C43.9517 22.7356 42.9555 22.3229 41.9167 22.3229H22.3334C21.2947 22.3229 20.2984 22.7356 19.5639 23.4701C18.8294 24.2046 18.4167 25.2008 18.4167 26.2396V43.8646C18.4167 44.384 18.6231 44.8821 18.9903 45.2493C19.3576 45.6166 19.8557 45.8229 20.3751 45.8229H21.7655C22.1472 44.9513 22.7747 44.2098 23.5712 43.6892C24.3676 43.1685 25.2985 42.8912 26.2501 42.8912C27.2016 42.8912 28.1326 43.1685 28.929 43.6892C29.7255 44.2098 30.3529 44.9513 30.7347 45.8229H45.2655C45.4091 45.477 45.5984 45.1571 45.8334 44.8633ZM45.8334 44.8633C46.3423 44.173 47.0244 43.6291 47.8106 43.2865C48.5969 42.944 49.4596 42.8148 50.3117 42.9122C51.1638 43.0095 51.9752 43.3298 52.6639 43.8409C53.3527 44.3519 53.8945 45.0356 54.2347 45.8229H57.5834V40.1633C57.5841 38.7423 57.1983 37.3477 56.4672 36.1292L54.0584 32.1146L52.2763 29.1575C52.103 28.8652 51.8566 28.623 51.5613 28.4547C51.266 28.2865 50.932 28.198 50.5922 28.1979H45.8334V44.8633Z" stroke="white" stroke-width="2.9375" stroke-linecap="round" stroke-linejoin="round"/>
<path d="M36.0417 36.0313H26.2501M36.0417 30.1562H26.2501M31.1459 47.7813C31.1468 48.5096 30.9851 49.2289 30.6728 49.8868C30.3604 50.5447 29.9052 51.1247 29.3403 51.5844C28.7754 52.0441 28.115 52.372 27.4073 52.5441C26.6997 52.7163 25.9625 52.7284 25.2496 52.5795C24.5366 52.4307 23.8659 52.1247 23.2862 51.6837C22.7065 51.2428 22.2325 50.6781 21.8987 50.0308C21.5649 49.3835 21.3797 48.6699 21.3567 47.9419C21.3337 47.214 21.4733 46.4901 21.7655 45.8229C22.2163 44.7936 23.0075 43.9506 24.0063 43.4356C25.005 42.9206 26.1506 42.7649 27.2506 42.9945C28.3506 43.2242 29.3382 43.8252 30.0474 44.6968C30.7567 45.5684 31.1446 46.6575 31.1459 47.7813ZM54.6459 47.7813C54.6468 48.5096 54.4851 49.2289 54.1728 49.8868C53.8604 50.5447 53.4052 51.1247 52.8403 51.5844C52.2754 52.0441 51.615 52.372 50.9073 52.5441C50.1997 52.7163 49.4625 52.7284 48.7496 52.5795C48.0366 52.4307 47.3659 52.1247 46.7862 51.6837C46.2065 51.2428 45.7325 50.6781 45.3987 50.0308C45.0649 49.3835 44.8797 48.6699 44.8567 47.9419C44.8337 47.214 44.9733 46.4901 45.2655 45.8229C45.4091 45.4769 45.5984 45.1571 45.8334 44.8633C46.3423 44.173 47.0243 43.6291 47.8106 43.2865C48.5969 42.944 49.4596 42.8148 50.3117 42.9122C51.1638 43.0095 51.9752 43.3298 52.6639 43.8409C53.3527 44.3519 53.8945 45.0356 54.2347 45.8229C54.5088 46.4398 54.6498 47.1076 54.6459 47.7813Z" stroke="white" stroke-width="2.9375" stroke-linecap="round" stroke-linejoin="round"/>
</svg>
