<svg width="77" height="76" viewBox="0 0 77 76" fill="none" xmlns="http://www.w3.org/2000/svg">
<rect x="0.5" width="76" height="76" rx="38" fill="black"/>
<path d="M40.6317 36.1815V23.4019C43.7374 23.9164 46.2992 25.427 48.3906 28.0183L51.2501 25.7101C48.4567 22.2514 44.8879 20.2446 40.6317 19.6896V14H36.9562V19.5536C30.3128 19.9579 25.9298 23.7069 25.9298 29.1466C25.9298 37.0011 31.6764 38.5558 36.9562 39.3626V52.5226C31.9575 52.1974 29.5703 50.5011 27.3595 47.7629L24.5 50.0711C27.7528 54.1013 31.3603 55.8931 36.9562 56.2036V61.7812H40.6317V56.1852C47.4791 55.6266 51.6581 51.9088 51.6581 46.188C51.6581 38.4529 45.8821 36.9717 40.6317 36.1815ZM29.6052 29.1466C29.6052 25.19 33.3358 23.5342 36.9562 23.242V35.6394C32.2332 34.862 29.6052 33.7226 29.6052 29.1466ZM40.6317 52.5043V39.9029C45.3491 40.6656 47.9826 41.748 47.9826 46.188C47.9826 50.8485 43.958 52.19 40.6317 52.5043Z" fill="white"/>
</svg>
