<svg width="214" height="52" viewBox="0 0 214 52" fill="none" xmlns="http://www.w3.org/2000/svg">
<path d="M23.7151 3.50711C31.2834 3.64846 37.105 6.95459 41.2247 13.2497C42.719 15.5319 43.5319 18.0934 43.992 20.779C44.2135 22.1346 44.2831 23.5106 44.1995 24.8815C44.0065 28.9899 42.5582 32.9414 40.0487 36.2065C38.1318 38.7653 35.628 40.8293 32.7466 42.2258C30.821 43.1591 28.7592 43.7827 26.6379 44.0736C25.6788 44.2113 24.7117 44.2874 23.7427 44.3012C22.3252 44.2923 20.9123 44.1386 19.5262 43.8427C18.6649 43.6634 18.1425 42.8429 18.2428 41.881C18.2952 41.4877 18.482 41.1244 18.7719 40.8525C19.0618 40.5805 19.4369 40.4166 19.834 40.3883C20.3472 40.4107 20.8581 40.4695 21.3629 40.5641C22.6828 40.7697 24.0249 40.7929 25.3512 40.6331C26.9578 40.455 28.5359 40.0774 30.0486 39.5092C33.6494 38.1302 36.3163 35.6549 38.2845 32.3832C39.3894 30.6145 40.1138 28.6364 40.4119 26.5742C41.0345 21.8374 40.1524 17.4591 37.1085 13.6565C34.4692 10.3642 31.1382 8.14053 26.925 7.40621C25.8241 7.19377 24.705 7.0887 23.5836 7.09249C19.7407 7.124 16.0242 8.46497 13.0517 10.8926C10.0791 13.3203 8.02942 16.6885 7.24309 20.4377C6.94836 21.9124 6.83223 23.4171 6.89719 24.9194C6.89719 25.3193 6.97675 25.7192 7.01825 26.1192C7.03901 26.3191 7.10819 26.4018 7.33649 26.3432C8.11823 26.1398 8.90343 25.9502 9.68864 25.7641C10.5292 25.5607 10.9685 26.0157 10.7263 26.8535C10.3182 28.298 9.89618 29.7356 9.47763 31.1766C9.05909 32.6177 8.65092 34.0346 8.22546 35.4653C8.22546 35.4653 8.22546 35.486 8.22546 35.4963C8.11477 35.8686 8.00062 36.2617 7.55787 36.3547C7.11511 36.4478 6.86606 36.1513 6.60317 35.879C5.17804 34.4012 3.75061 32.9245 2.32087 31.449C1.64982 30.7422 0.971847 30.0527 0.300793 29.3632C-0.224982 28.8082 -0.0451114 28.1532 0.712419 27.9636C1.55297 27.7498 2.39697 27.543 3.24444 27.3568C3.51078 27.2982 3.56267 27.1672 3.52116 26.9328C3.29035 25.6304 3.21603 24.3053 3.29978 22.9854C3.64569 16.9523 6.16387 11.9534 10.8128 8.08882C13.4741 5.89203 16.6627 4.42246 20.0658 3.82428C21.2693 3.60335 22.4913 3.49714 23.7151 3.50711Z" fill="#F47820"/>
<path d="M23.224 46.0388C22.2977 47.1641 21.0294 47.9588 19.6104 48.3031C18.1913 48.6474 16.6985 48.5226 15.3568 47.9476C14.0151 47.3726 12.8974 46.3785 12.172 45.1151C11.4466 43.8517 11.153 42.3876 11.3353 40.9434C11.5104 39.4718 12.1688 38.0992 13.2079 37.0392C14.2471 35.9792 15.6087 35.2914 17.0808 35.0827C20.5606 34.6035 23.307 36.7857 24.151 38.9439C23.5838 38.9439 23.0234 38.9783 22.4665 38.9439C21.5913 38.8818 20.737 38.706 19.848 38.6888C18.0873 38.6577 16.5827 40.216 16.5411 41.9708C16.5025 42.7582 16.7359 43.535 17.2023 44.1718C17.6687 44.8085 18.34 45.2667 19.1043 45.47C19.8791 45.6527 20.6816 45.7078 21.4703 45.8147C22.0376 45.9112 22.6048 45.9629 23.224 46.0388Z" fill="#F47820"/>
<path d="M55.1608 37V13.024H60.3808V22.312L68.1928 13.024H74.4208L64.5568 24.4L73.9168 37H67.5808L60.3808 27.316V37H55.1608ZM83.0276 37.54C81.1316 37.54 79.6076 36.736 78.4556 35.128C77.3276 33.496 76.7636 31.264 76.7636 28.432C76.7636 25.024 77.6276 22.432 79.3556 20.656C81.0836 18.856 83.5676 17.956 86.8076 17.956C88.6316 17.956 90.7676 18.244 93.2156 18.82V37H88.3916L88.4996 34.048H88.3556C87.1076 36.376 85.3316 37.54 83.0276 37.54ZM84.1076 33.112C84.8996 33.112 85.6556 32.692 86.3756 31.852C87.0956 31.012 87.7436 29.98 88.3196 28.756V22.708C87.9356 22.588 87.5396 22.504 87.1316 22.456C86.7236 22.408 86.3516 22.384 86.0156 22.384C83.1116 22.384 81.6596 24.328 81.6596 28.216C81.6596 29.728 81.8756 30.928 82.3076 31.816C82.7396 32.68 83.3396 33.112 84.1076 33.112ZM102.553 45.064C101.953 45.064 101.365 44.992 100.789 44.848C100.237 44.704 99.6725 44.512 99.0965 44.272L99.8525 40.096C100.765 40.552 101.533 40.78 102.157 40.78C102.949 40.78 103.525 40.504 103.885 39.952C104.269 39.4 104.653 38.596 105.037 37.54L97.8005 18.532L103.057 18.1L107.485 31.384L111.589 18.46H116.593C116.065 20.068 115.489 21.772 114.865 23.572C114.241 25.372 113.593 27.184 112.921 29.008C112.273 30.808 111.637 32.524 111.013 34.156C110.389 35.764 109.801 37.204 109.249 38.476C108.697 39.748 108.217 40.756 107.809 41.5C107.161 42.652 106.429 43.528 105.613 44.128C104.797 44.752 103.777 45.064 102.553 45.064ZM126.424 37.54C125.248 37.54 124.108 37.42 123.004 37.18C121.924 36.94 121 36.616 120.232 36.208L120.7 31.888C121.516 32.392 122.416 32.8 123.4 33.112C124.384 33.424 125.308 33.58 126.172 33.58C126.94 33.58 127.612 33.436 128.188 33.148C128.764 32.86 129.052 32.416 129.052 31.816C129.052 31.24 128.74 30.82 128.116 30.556C127.516 30.292 126.58 29.92 125.308 29.44C124.828 29.248 124.288 29.032 123.688 28.792C123.112 28.552 122.56 28.24 122.032 27.856C121.504 27.448 121.072 26.932 120.736 26.308C120.4 25.66 120.232 24.856 120.232 23.896C120.232 22.6 120.556 21.52 121.204 20.656C121.876 19.768 122.788 19.096 123.94 18.64C125.092 18.184 126.388 17.956 127.828 17.956C128.812 17.956 129.772 18.052 130.708 18.244C131.668 18.436 132.58 18.688 133.444 19L132.76 23.284C132.064 22.876 131.272 22.552 130.384 22.312C129.52 22.048 128.704 21.916 127.936 21.916C127.192 21.916 126.568 22.048 126.064 22.312C125.584 22.552 125.344 22.936 125.344 23.464C125.344 23.896 125.512 24.244 125.848 24.508C126.184 24.748 126.64 24.964 127.216 25.156C127.792 25.324 128.428 25.552 129.124 25.84C129.82 26.104 130.552 26.44 131.32 26.848C132.112 27.256 132.784 27.832 133.336 28.576C133.888 29.32 134.164 30.34 134.164 31.636C134.164 33.004 133.816 34.132 133.12 35.02C132.448 35.884 131.524 36.52 130.348 36.928C129.196 37.336 127.888 37.54 126.424 37.54ZM146.539 37.54C144.811 37.54 143.467 37.108 142.507 36.244C141.571 35.356 141.103 34.108 141.103 32.5V22.816H138.223V18.46H141.103V14.5C142.831 14.212 144.511 13.996 146.143 13.852V18.46H150.823V22.816H146.143V31.564C146.143 32.596 146.719 33.112 147.871 33.112C148.543 33.112 149.311 32.956 150.175 32.644L151.291 36.46C149.755 37.18 148.171 37.54 146.539 37.54ZM164.377 37.54C162.481 37.54 160.825 37.132 159.409 36.316C157.993 35.5 156.889 34.36 156.097 32.896C155.305 31.432 154.909 29.716 154.909 27.748C154.909 25.78 155.305 24.064 156.097 22.6C156.889 21.136 157.993 19.996 159.409 19.18C160.825 18.364 162.469 17.956 164.341 17.956C166.237 17.956 167.881 18.364 169.273 19.18C170.689 19.972 171.793 21.1 172.585 22.564C173.377 24.004 173.773 25.696 173.773 27.64C173.773 29.608 173.377 31.336 172.585 32.824C171.817 34.312 170.725 35.476 169.309 36.316C167.893 37.132 166.249 37.54 164.377 37.54ZM164.341 33.148C165.637 33.148 166.669 32.656 167.437 31.672C168.229 30.664 168.625 29.344 168.625 27.712C168.625 26.08 168.229 24.784 167.437 23.824C166.669 22.84 165.637 22.348 164.341 22.348C163.045 22.348 162.001 22.84 161.209 23.824C160.441 24.784 160.057 26.08 160.057 27.712C160.057 29.344 160.441 30.664 161.209 31.672C162.001 32.656 163.045 33.148 164.341 33.148ZM179.443 37V18.46H184.519V21.484H184.807C185.431 20.38 186.079 19.516 186.751 18.892C187.447 18.244 188.347 17.92 189.451 17.92C189.883 17.92 190.243 17.968 190.531 18.064L189.991 23.536C189.727 23.464 189.475 23.404 189.235 23.356C188.995 23.308 188.743 23.284 188.479 23.284C187.591 23.284 186.883 23.548 186.355 24.076C185.827 24.58 185.215 25.264 184.519 26.128V37H179.443ZM203.63 37.54C200.654 37.54 198.302 36.676 196.574 34.948C194.846 33.22 193.982 30.82 193.982 27.748C193.982 25.732 194.354 23.992 195.098 22.528C195.842 21.064 196.886 19.936 198.23 19.144C199.598 18.352 201.194 17.956 203.018 17.956C205.706 17.956 207.77 18.82 209.21 20.548C210.65 22.276 211.37 24.772 211.37 28.036C211.37 28.252 211.37 28.468 211.37 28.684C211.37 28.876 211.358 29.068 211.334 29.26H199.094C199.574 31.852 201.29 33.148 204.242 33.148C205.154 33.148 206.078 33.04 207.014 32.824C207.974 32.584 208.814 32.272 209.534 31.888L210.362 35.956C208.37 37.012 206.126 37.54 203.63 37.54ZM199.058 25.444H206.51C206.438 24.412 206.078 23.596 205.43 22.996C204.782 22.372 203.918 22.06 202.838 22.06C201.806 22.06 200.954 22.36 200.282 22.96C199.634 23.56 199.226 24.388 199.058 25.444Z" fill="white"/>
</svg>
